<svg xmlns="http://www.w3.org/2000/svg" viewBox="0 0 1024 1024" role="img" aria-label="Element 78 Coach">
  <defs>
    <radialGradient id="ground" cx="50%" cy="42%" r="68%">
      <stop offset="0%" stop-color="#1F2738"/>
      <stop offset="55%" stop-color="#10151E"/>
      <stop offset="100%" stop-color="#06090E"/>
    </radialGradient>
    <linearGradient id="ink" x1="0" y1="0" x2="1" y2="1">
      <stop offset="0%" stop-color="#7BD2F4"/>
      <stop offset="100%" stop-color="#2E7FB0"/>
    </linearGradient>
  </defs>

  <rect width="1024" height="1024" fill="url(#ground)"/>

  <!-- coach halo -->
  <circle cx="512" cy="540" r="240" fill="none" stroke="#4DA9D6" stroke-opacity="0.22" stroke-width="2"/>

  <g transform="translate(512 540) scale(0.62)">
    <g transform="translate(-296 0)" fill="url(#ink)">
      <path d="M -150 -210 L 150 -210 L 150 -114 L -54 -114 Z"/>
      <path d="M 150 -114 L 150 -22 L -32 210 L -150 210 Z"/>
      <rect x="-92" y="-30" width="184" height="22"/>
    </g>
    <g transform="translate(296 0)" fill="url(#ink)">
      <path d="M 0 -228
               C 86 -228 154 -176 154 -108
               C 154 -56 116 -16 70 -2
               C 122 14 168 56 168 116
               C 168 188 92 228 0 228
               C -92 228 -168 188 -168 116
               C -168 56 -122 14 -70 -2
               C -116 -16 -154 -56 -154 -108
               C -154 -176 -86 -228 0 -228 Z
               M 0 -134
               C -32 -134 -58 -118 -58 -90
               C -58 -62 -32 -46 0 -46
               C 32 -46 58 -62 58 -90
               C 58 -118 32 -134 0 -134 Z
               M 0 50
               C -42 50 -76 76 -76 118
               C -76 158 -42 184 0 184
               C 42 184 76 158 76 118
               C 76 76 42 50 0 50 Z"
            fill-rule="evenodd"/>
    </g>
  </g>

  <!-- electric underline -->
  <rect x="448" y="780" width="128" height="4" fill="#4DA9D6" opacity="0.85"/>
</svg>
